# xmcd
#
# Track frame offsets: 
#        150
#        10904
#        20872
#        31663
#        41489
#        50270
#        58632
#        70256
#        79587
#        90598
#        102213
#        111913
#        121014
#        132157
#        143838
#        154715
#        164046
#        176215
#        189288
#        198598
#        208542
#        221044
#        234798
#        246480
#
# Disc length: 3402 seconds
#
# Revision: 1
# Processed by: cddbd v1.5.2PL0 Copyright (c) Steve Scherf et al.
# Submitted via: ExactAudioCopy v1.3
#
DISCID=4b0d4818
DTITLE=Charlie Monroe - Charlie Monroe_The Starday Sessions
DYEAR=2011
DGENRE=Bluegrass
TTITLE0=Sweetheart I Love You The Best
TTITLE1=Who's Calling You Sweetheart Tonight
TTITLE2=Down In The Willow Garden
TTITLE3=Walking With You In My Dreams
TTITLE4=Find 'Em, Fool 'Em, And Leave 'Em Alone
TTITLE5=Penitentiary Blues
TTITLE6=I've Changed My Mind
TTITLE7=Won't We Have A Good Time
TTITLE8=Nobody Cares For Me
TTITLE9=(It's) Hard To Believe
TTITLE10=Would You
TTITLE11=Banjo Player's Blues
TTITLE12=I'm Going Away
TTITLE13=We'll Love Again Sweetheart
TTITLE14=I'm Going That Way
TTITLE15=Wait For The Light To Shine
TTITLE16=I Feel Like A Stranger
TTITLE17=Sing, Sing, Sing
TTITLE18=I Live In Glory
TTITLE19=Lord Build Me A Cabin
TTITLE20=Child Of The King
TTITLE21=How Beautiful Heaven Must Be
TTITLE22=Shake My Mother's Hand For Me
TTITLE23=Working On A Building
EXTD=
EXTT0=
EXTT1=
EXTT2=
EXTT3=
EXTT4=
EXTT5=
EXTT6=
EXTT7=
EXTT8=
EXTT9=
EXTT10=
EXTT11=
EXTT12=
EXTT13=
EXTT14=
EXTT15=
EXTT16=
EXTT17=
EXTT18=
EXTT19=
EXTT20=
EXTT21=
EXTT22=
EXTT23=
PLAYORDER=
